<svg width="21" height="20" viewBox="0 0 21 20" fill="none" xmlns="http://www.w3.org/2000/svg">
<path d="M18 4.375H13C12.337 4.375 11.7011 4.63837 11.2322 5.10727C10.7634 5.57602 10.5 6.21201 10.5 6.875C10.5 6.21201 10.2366 5.57602 9.76777 5.10727C9.29894 4.63837 8.66303 4.375 8 4.375H3C2.83425 4.375 2.67525 4.44092 2.55807 4.55811C2.44084 4.67529 2.375 4.83429 2.375 5V15C2.375 15.1657 2.44084 15.3247 2.55807 15.4419C2.67525 15.5591 2.83425 15.625 3 15.625H8C8.66303 15.625 9.29894 15.8884 9.76777 16.3573C10.2366 16.826 10.5 17.462 10.5 18.125C10.5 17.462 10.7634 16.826 11.2322 16.3573C11.7011 15.8884 12.337 15.625 13 15.625H18C18.1657 15.625 18.3247 15.5591 18.4419 15.4419C18.5592 15.3247 18.625 15.1657 18.625 15V5C18.625 4.83429 18.5592 4.67529 18.4419 4.55811C18.3247 4.44092 18.1657 4.375 18 4.375Z" fill="#1C1C1C" fill-opacity="0.1"/>
<path d="M10.7903 15.9153C9.875 16.8306 9.875 18.125 9.875 18.125C9.875 18.4702 10.1548 18.75 10.5 18.75C10.8452 18.75 11.125 18.4702 11.125 18.125C11.125 17.3483 11.6742 16.7992 11.6742 16.7992C12.2234 16.25 13 16.25 13 16.25H18C18.5178 16.25 18.8839 15.8839 18.8839 15.8839C19.25 15.5178 19.25 15 19.25 15V5C19.25 4.48223 18.8839 4.11612 18.8839 4.11612C18.5178 3.75 18 3.75 18 3.75H13C11.7056 3.75 10.7903 4.66529 10.7903 4.66529C9.875 5.58058 9.875 6.875 9.875 6.875C9.875 7.22018 10.1548 7.5 10.5 7.5C10.6658 7.5 10.8247 7.43415 10.9419 7.31694C11.0592 7.19973 11.125 7.04076 11.125 6.875C11.125 6.09835 11.6742 5.54917 11.6742 5.54917C12.2233 5 13 5 13 5H18V15H13C11.7056 15 10.7903 15.9153 10.7903 15.9153Z" fill="#1C1C1C"/>
<path fill-rule="evenodd" clip-rule="evenodd" d="M1.75 5C1.75 5 1.75 4.48223 2.11612 4.11612C2.11612 4.11612 2.48223 3.75 3 3.75H8C8 3.75 9.29442 3.75 10.2097 4.66529C10.2097 4.66529 11.125 5.58058 11.125 6.875V18.125C11.125 18.4702 10.8452 18.75 10.5 18.75C10.1548 18.75 9.875 18.4702 9.875 18.125C9.875 18.125 9.875 17.3483 9.32583 16.7992C9.32583 16.7992 8.77665 16.25 8 16.25H3C3 16.25 2.48223 16.25 2.11612 15.8839C2.11612 15.8839 1.75 15.5178 1.75 15V5ZM9.875 6.875V15.6209C9.875 15.6209 9.06608 15 8 15H3V5H8C8 5 8.77665 5 9.32583 5.54917C9.32583 5.54917 9.875 6.09835 9.875 6.875Z" fill="#1C1C1C"/>
</svg>
