<svg width="21" height="20" viewBox="0 0 21 20" fill="none" xmlns="http://www.w3.org/2000/svg">
<path d="M3.12498 11.375C3.03976 10.9217 2.99788 10.4613 3.00002 10C2.99902 8.44887 3.47945 6.93573 4.37506 5.66933C5.27068 4.40285 6.53723 3.44566 8.00002 2.92969V8.55469L3.12498 11.375Z" fill="#1C1C1C" fill-opacity="0.1"/>
<path d="M11.125 10V2.5C11.125 2.15482 10.8452 1.875 10.5 1.875C10.1548 1.875 9.875 2.15482 9.875 2.5V10C9.875 10.3452 10.1548 10.625 10.5 10.625C10.8452 10.625 11.125 10.3452 11.125 10Z" fill="#1C1C1C"/>
<path d="M3.69567 13.2085L3.6952 13.2088C3.55167 13.2917 3.44695 13.4282 3.40408 13.5884C3.38996 13.6411 3.38281 13.6954 3.38281 13.75C3.38281 13.7566 3.38292 13.7632 3.38313 13.7698C3.3864 13.8728 3.41507 13.9734 3.46661 14.0626C3.57827 14.2559 3.78457 14.375 4.00781 14.375C4.01752 14.375 4.02723 14.3748 4.03693 14.3743C4.13671 14.3697 4.23392 14.3412 4.32042 14.2912L4.32089 14.2909L17.3048 6.7912C17.4981 6.67954 17.6172 6.47325 17.6172 6.25C17.6172 6.24029 17.617 6.23058 17.6165 6.22089C17.6119 6.1211 17.5834 6.02389 17.5334 5.93739C17.4505 5.79386 17.314 5.68913 17.1538 5.64626C17.1011 5.63215 17.0468 5.625 16.9922 5.625C16.9856 5.625 16.979 5.6251 16.9724 5.62531C16.8694 5.62858 16.7688 5.65726 16.6796 5.7088L3.69567 13.2085Z" fill="#1C1C1C"/>
<path fill-rule="evenodd" clip-rule="evenodd" d="M8.31297 9.09568L3.43797 11.916C3.29449 11.999 3.12392 12.0216 2.96377 11.9788C2.80362 11.9361 2.66701 11.8315 2.58401 11.688C2.5486 11.6268 2.52384 11.56 2.51077 11.4905C2.51077 11.4905 2.37154 10.7503 2.375 9.99712C2.375 9.99712 2.37335 7.41738 3.86476 5.30843C3.86476 5.30843 5.35617 3.19949 7.7921 2.34028C7.94842 2.28514 8.12024 2.29436 8.26976 2.36591C8.41929 2.43745 8.53427 2.56547 8.5894 2.72179C8.61296 2.78857 8.625 2.85887 8.625 2.92969V8.55469C8.625 8.77778 8.50608 8.98396 8.31297 9.09568ZM3.63288 10.3591L7.375 8.19421V3.87232C7.375 3.87232 5.88126 4.6219 4.88535 6.03017C4.88535 6.03017 3.6236 7.81436 3.62499 10.0029C3.62499 10.0029 3.62417 10.1814 3.63288 10.3591Z" fill="#1C1C1C"/>
<path d="M7.09931 15.9755C5.50112 15.0662 4.57024 13.4805 4.57024 13.4805C4.48633 13.3375 4.34906 13.2338 4.18864 13.192C4.13725 13.1786 4.08436 13.1719 4.03125 13.1719C4.02318 13.1719 4.0151 13.172 4.00703 13.1723C3.90407 13.1763 3.8037 13.2057 3.71484 13.2579C3.52367 13.3701 3.40625 13.5752 3.40625 13.7969L3.40625 13.7987C3.40657 13.9093 3.43625 14.0179 3.49226 14.1133C4.59239 15.9873 6.48116 17.062 6.48116 17.062C8.36993 18.1366 10.543 18.1249 10.543 18.1249C12.7161 18.1132 14.5931 17.0182 14.5931 17.0182C16.4702 15.9232 17.55 14.0374 17.55 14.0374C18.6299 12.1516 18.6241 9.97854 18.6241 9.97854C18.6184 7.80546 17.5286 5.92538 17.5286 5.92538C16.4388 4.04531 14.556 2.96028 14.556 2.96028C12.6732 1.87525 10.5001 1.875 10.5001 1.875C10.4619 1.875 10.4238 1.87849 10.3863 1.88542C10.0901 1.94022 9.87503 2.19861 9.875 2.49993C9.875 2.50996 9.87524 2.51998 9.87572 2.52995C9.88316 2.68515 9.94815 2.83201 10.058 2.94189C10.1752 3.05911 10.3342 3.12498 10.4999 3.125H10.5002C12.3388 3.12528 13.9319 4.04331 13.9319 4.04331C15.525 4.96141 16.4471 6.55225 16.4471 6.55225C17.3693 8.14308 17.3741 9.98184 17.3741 9.98184C17.379 11.8206 16.4653 13.4163 16.4653 13.4163C15.5516 15.012 13.9633 15.9385 13.9633 15.9385C12.375 16.865 10.5362 16.8749 10.5362 16.8749C8.6975 16.8848 7.09931 15.9755 7.09931 15.9755Z" fill="#1C1C1C"/>
</svg>
