<svg width="21" height="20" viewBox="0 0 21 20" fill="none" xmlns="http://www.w3.org/2000/svg">
<path d="M7.78912 8.125H3V5C3 4.83421 3.06592 4.67529 3.18311 4.55803C3.30029 4.44084 3.45929 4.375 3.625 4.375H7.78912C7.92416 4.37553 8.05554 4.41933 8.16403 4.49997L10.5 6.25L8.16403 8.00003C8.05554 8.08067 7.92416 8.12447 7.78912 8.125V8.125Z" fill="#1C1C1C" fill-opacity="0.1"/>
<path d="M3.625 15.625V8.125C3.625 7.77982 3.34518 7.5 3 7.5C2.65482 7.5 2.375 7.77982 2.375 8.125V15.625C2.375 16.1428 2.74112 16.5089 2.74112 16.5089C3.10723 16.875 3.625 16.875 3.625 16.875H17.375C17.8928 16.875 18.2589 16.5089 18.2589 16.5089C18.625 16.1428 18.625 15.625 18.625 15.625V6.875C18.625 6.35723 18.2589 5.99112 18.2589 5.99112C17.8928 5.625 17.375 5.625 17.375 5.625H10.5C10.1548 5.625 9.875 5.90482 9.875 6.25C9.875 6.59518 10.1548 6.875 10.5 6.875H17.375V15.625H3.625Z" fill="#1C1C1C"/>
<path fill-rule="evenodd" clip-rule="evenodd" d="M8.537 8.50154C8.537 8.50154 8.20541 8.74811 7.79225 8.74999L7.79165 8.74999L7.78906 8.75H3C2.65482 8.75 2.375 8.47018 2.375 8.125V5C2.375 5 2.375 4.48223 2.74112 4.11612C2.74112 4.11612 3.10723 3.75 3.625 3.75L7.79163 3.75001C7.79163 3.75001 8.20516 3.75171 8.53879 3.9998L10.8747 5.7498C10.9223 5.78544 10.9646 5.82769 11.0002 5.87527C11.0996 6.00793 11.1422 6.17464 11.1187 6.33872C11.0951 6.5028 11.0074 6.65082 10.8747 6.7502L8.537 8.50154ZM7.78676 7.5C7.78676 7.5 7.78917 7.49991 7.79112 7.49846L9.45759 6.25L7.78933 5.0002C7.78933 5.0002 7.78906 5.00001 7.78649 4.99999L3.625 5V7.5H7.78676Z" fill="#1C1C1C"/>
</svg>
