<svg width="35" height="26" viewBox="0 0 35 26" fill="none" xmlns="http://www.w3.org/2000/svg">
<path d="M24.5272 17.9316C22.612 19.0113 20.2799 19.6094 17.872 19.6386C10.0293 19.6386 5.54767 13.0098 5.54767 13.0098C6.94132 11.089 8.87428 9.41084 11.2169 8.08789" stroke="#00D1B8" stroke-width="1.5" stroke-linecap="round" stroke-linejoin="round"/>
<path d="M15.5192 6.58023C16.2904 6.44673 17.08 6.37999 17.872 6.38137C25.7148 6.38137 30.1964 13.0102 30.1964 13.0102C29.5163 13.9511 28.7052 14.837 27.7763 15.6534" stroke="#00D1B8" stroke-width="1.5" stroke-linecap="round" stroke-linejoin="round"/>
<path d="M20.2472 14.7667C19.4093 15.4317 18.1474 15.7055 16.9565 15.4805C15.7656 15.2556 14.8356 14.5679 14.5315 13.6871C14.2274 12.8064 14.5975 11.8731 15.4968 11.2534" stroke="#00D1B8" stroke-width="1.5" stroke-linecap="round" stroke-linejoin="round"/>
</svg>
