<svg width="36" height="36" viewBox="0 0 36 36" fill="none" xmlns="http://www.w3.org/2000/svg">
<path d="M30 3.375H6C3.72183 3.375 1.875 5.22183 1.875 7.5V16.5C1.875 18.7782 3.72183 20.625 6 20.625H30C32.2782 20.625 34.125 18.7782 34.125 16.5V7.5C34.125 5.22183 32.2782 3.375 30 3.375Z" fill="#29B3FF"/>
<path d="M27.75 10.875H8.25C7.95163 10.875 7.66548 10.9935 7.4545 11.2045C7.24353 11.4155 7.125 11.7016 7.125 12V28.5C7.12579 29.5938 7.56065 30.6425 8.33406 31.4159C9.10748 32.1894 10.1562 32.6242 11.25 32.625H24.75C25.8438 32.6242 26.8925 32.1894 27.6659 31.4159C28.4394 30.6425 28.8742 29.5938 28.875 28.5V12C28.875 11.7016 28.7565 11.4155 28.5455 11.2045C28.3345 10.9935 28.0484 10.875 27.75 10.875Z" fill="#FFC545"/>
<path d="M17.9998 28.1243C17.852 28.1246 17.7056 28.0957 17.5692 28.039C17.4327 27.9824 17.3088 27.8992 17.2048 27.7943L12.7048 23.2943C12.5061 23.081 12.3979 22.799 12.403 22.5075C12.4081 22.216 12.5262 21.938 12.7323 21.7318C12.9385 21.5257 13.2165 21.4077 13.508 21.4025C13.7994 21.3974 14.0815 21.5056 14.2948 21.7043L17.9998 25.4078L21.7048 21.7043C21.918 21.5056 22.2001 21.3974 22.4916 21.4025C22.783 21.4077 23.0611 21.5257 23.2672 21.7318C23.4733 21.938 23.5914 22.216 23.5965 22.5075C23.6017 22.799 23.4935 23.081 23.2948 23.2943L18.7948 27.7943C18.6907 27.8992 18.5668 27.9824 18.4304 28.039C18.2939 28.0957 18.1475 28.1246 17.9998 28.1243Z" fill="white"/>
<path d="M18 28.125C17.7016 28.125 17.4155 28.0065 17.2045 27.7955C16.9935 27.5845 16.875 27.2984 16.875 27V16.5C16.875 16.2016 16.9935 15.9155 17.2045 15.7045C17.4155 15.4935 17.7016 15.375 18 15.375C18.2984 15.375 18.5845 15.4935 18.7955 15.7045C19.0065 15.9155 19.125 16.2016 19.125 16.5V27C19.125 27.2984 19.0065 27.5845 18.7955 27.7955C18.5845 28.0065 18.2984 28.125 18 28.125Z" fill="white"/>
<path d="M30 20.625H27.75C27.4516 20.625 27.1655 20.5065 26.9545 20.2955C26.7435 20.0845 26.625 19.7984 26.625 19.5C26.625 19.2016 26.7435 18.9155 26.9545 18.7045C27.1655 18.4935 27.4516 18.375 27.75 18.375H30C30.497 18.3742 30.9735 18.1764 31.3249 17.8249C31.6764 17.4735 31.8742 16.997 31.875 16.5V7.5C31.8742 7.00296 31.6764 6.52651 31.3249 6.17505C30.9735 5.82359 30.497 5.62579 30 5.625H6C5.50296 5.62579 5.02651 5.82359 4.67505 6.17505C4.32359 6.52651 4.12579 7.00296 4.125 7.5V16.5C4.12579 16.997 4.32359 17.4735 4.67505 17.8249C5.02651 18.1764 5.50296 18.3742 6 18.375H8.25C8.54837 18.375 8.83452 18.4935 9.0455 18.7045C9.25647 18.9155 9.375 19.2016 9.375 19.5C9.375 19.7984 9.25647 20.0845 9.0455 20.2955C8.83452 20.5065 8.54837 20.625 8.25 20.625H6C4.90623 20.6242 3.85748 20.1894 3.08406 19.4159C2.31065 18.6425 1.87579 17.5938 1.875 16.5V7.5C1.87579 6.40623 2.31065 5.35748 3.08406 4.58406C3.85748 3.81065 4.90623 3.37579 6 3.375H30C31.0938 3.37579 32.1425 3.81065 32.9159 4.58406C33.6894 5.35748 34.1242 6.40623 34.125 7.5V16.5C34.1242 17.5938 33.6894 18.6425 32.9159 19.4159C32.1425 20.1894 31.0938 20.6242 30 20.625Z" fill="#1C1C1C"/>
<path d="M24.75 32.625H11.25C10.1562 32.6242 9.10748 32.1894 8.33406 31.4159C7.56065 30.6425 7.12579 29.5938 7.125 28.5V10.5C7.125 10.2016 7.24353 9.91548 7.4545 9.7045C7.66548 9.49353 7.95163 9.375 8.25 9.375H27.75C28.0484 9.375 28.3345 9.49353 28.5455 9.7045C28.7565 9.91548 28.875 10.2016 28.875 10.5V28.5C28.8742 29.5938 28.4394 30.6425 27.6659 31.4159C26.8925 32.1894 25.8438 32.6242 24.75 32.625ZM9.375 11.625V28.5C9.37579 28.997 9.57359 29.4735 9.92505 29.8249C10.2765 30.1764 10.753 30.3742 11.25 30.375H24.75C25.247 30.3742 25.7235 30.1764 26.0749 29.8249C26.4264 29.4735 26.6242 28.997 26.625 28.5V11.625H9.375Z" fill="#1C1C1C"/>
<path d="M29.25 11.625H6.75C6.45163 11.625 6.16548 11.5065 5.9545 11.2955C5.74353 11.0845 5.625 10.7984 5.625 10.5C5.625 10.2016 5.74353 9.91548 5.9545 9.7045C6.16548 9.49353 6.45163 9.375 6.75 9.375H29.25C29.5484 9.375 29.8345 9.49353 30.0455 9.7045C30.2565 9.91548 30.375 10.2016 30.375 10.5C30.375 10.7984 30.2565 11.0845 30.0455 11.2955C29.8345 11.5065 29.5484 11.625 29.25 11.625Z" fill="#1C1C1C"/>
</svg>
